<mxfile host="app.diagrams.net" modified="2023-08-02T10:59:43.822Z" agent="Mozilla/5.0 (Windows NT 10.0; Win64; x64) AppleWebKit/537.36 (KHTML, like Gecko) Chrome/114.0.0.0 Safari/537.36" etag="h__wlP7mGSX5LluygR6-" version="21.6.5" type="device">
  <diagram name="Page-1" id="oXHPxvQ1bsRdNq7H_q3D">
    <mxGraphModel dx="1222" dy="577" grid="1" gridSize="10" guides="1" tooltips="1" connect="1" arrows="1" fold="1" page="1" pageScale="1" pageWidth="850" pageHeight="1100" math="0" shadow="0">
      <root>
        <mxCell id="0" />
        <mxCell id="1" parent="0" />
        <mxCell id="5e9uzvXsmu2g_bey__u_-4" value="" style="edgeStyle=orthogonalEdgeStyle;rounded=0;orthogonalLoop=1;jettySize=auto;html=1;" edge="1" parent="1" source="5e9uzvXsmu2g_bey__u_-1" target="5e9uzvXsmu2g_bey__u_-2">
          <mxGeometry relative="1" as="geometry" />
        </mxCell>
        <mxCell id="5e9uzvXsmu2g_bey__u_-1" value="Start" style="ellipse;whiteSpace=wrap;html=1;fillColor=#f8cecc;strokeColor=#b85450;" vertex="1" parent="1">
          <mxGeometry x="90" y="50" width="120" height="80" as="geometry" />
        </mxCell>
        <mxCell id="5e9uzvXsmu2g_bey__u_-5" value="" style="edgeStyle=orthogonalEdgeStyle;rounded=0;orthogonalLoop=1;jettySize=auto;html=1;" edge="1" parent="1" source="5e9uzvXsmu2g_bey__u_-2" target="5e9uzvXsmu2g_bey__u_-3">
          <mxGeometry relative="1" as="geometry" />
        </mxCell>
        <mxCell id="5e9uzvXsmu2g_bey__u_-2" value="Search for a person" style="rounded=1;whiteSpace=wrap;html=1;fillColor=#dae8fc;strokeColor=#6c8ebf;" vertex="1" parent="1">
          <mxGeometry x="90" y="190" width="120" height="60" as="geometry" />
        </mxCell>
        <mxCell id="5e9uzvXsmu2g_bey__u_-8" value="" style="edgeStyle=orthogonalEdgeStyle;rounded=0;orthogonalLoop=1;jettySize=auto;html=1;" edge="1" parent="1" source="5e9uzvXsmu2g_bey__u_-3" target="5e9uzvXsmu2g_bey__u_-6">
          <mxGeometry relative="1" as="geometry" />
        </mxCell>
        <mxCell id="5e9uzvXsmu2g_bey__u_-10" value="" style="edgeStyle=orthogonalEdgeStyle;rounded=0;orthogonalLoop=1;jettySize=auto;html=1;" edge="1" parent="1" source="5e9uzvXsmu2g_bey__u_-3" target="5e9uzvXsmu2g_bey__u_-7">
          <mxGeometry relative="1" as="geometry" />
        </mxCell>
        <mxCell id="5e9uzvXsmu2g_bey__u_-3" value="Person&lt;br&gt;found?" style="rhombus;whiteSpace=wrap;html=1;fillColor=#fff2cc;strokeColor=#d6b656;" vertex="1" parent="1">
          <mxGeometry x="85" y="310" width="130" height="80" as="geometry" />
        </mxCell>
        <mxCell id="5e9uzvXsmu2g_bey__u_-9" style="edgeStyle=orthogonalEdgeStyle;rounded=0;orthogonalLoop=1;jettySize=auto;html=1;entryX=1;entryY=0.5;entryDx=0;entryDy=0;" edge="1" parent="1" source="5e9uzvXsmu2g_bey__u_-6" target="5e9uzvXsmu2g_bey__u_-2">
          <mxGeometry relative="1" as="geometry">
            <Array as="points">
              <mxPoint x="360" y="220" />
            </Array>
          </mxGeometry>
        </mxCell>
        <mxCell id="5e9uzvXsmu2g_bey__u_-6" value="Search again with filters" style="rounded=1;whiteSpace=wrap;html=1;fillColor=#dae8fc;strokeColor=#6c8ebf;" vertex="1" parent="1">
          <mxGeometry x="300" y="320" width="120" height="60" as="geometry" />
        </mxCell>
        <mxCell id="5e9uzvXsmu2g_bey__u_-44" value="" style="edgeStyle=orthogonalEdgeStyle;rounded=0;orthogonalLoop=1;jettySize=auto;html=1;" edge="1" parent="1" source="5e9uzvXsmu2g_bey__u_-7" target="5e9uzvXsmu2g_bey__u_-43">
          <mxGeometry relative="1" as="geometry" />
        </mxCell>
        <mxCell id="5e9uzvXsmu2g_bey__u_-7" value="View profile" style="rounded=1;whiteSpace=wrap;html=1;fillColor=#dae8fc;strokeColor=#6c8ebf;" vertex="1" parent="1">
          <mxGeometry x="90" y="450" width="120" height="60" as="geometry" />
        </mxCell>
        <mxCell id="5e9uzvXsmu2g_bey__u_-21" value="" style="edgeStyle=orthogonalEdgeStyle;rounded=0;orthogonalLoop=1;jettySize=auto;html=1;" edge="1" parent="1" source="5e9uzvXsmu2g_bey__u_-11" target="5e9uzvXsmu2g_bey__u_-20">
          <mxGeometry relative="1" as="geometry" />
        </mxCell>
        <mxCell id="5e9uzvXsmu2g_bey__u_-36" value="" style="edgeStyle=orthogonalEdgeStyle;rounded=0;orthogonalLoop=1;jettySize=auto;html=1;" edge="1" parent="1" source="5e9uzvXsmu2g_bey__u_-11" target="5e9uzvXsmu2g_bey__u_-35">
          <mxGeometry relative="1" as="geometry" />
        </mxCell>
        <mxCell id="5e9uzvXsmu2g_bey__u_-11" value="Premium account?" style="rhombus;whiteSpace=wrap;html=1;fillColor=#fff2cc;strokeColor=#d6b656;" vertex="1" parent="1">
          <mxGeometry x="85" y="780" width="130" height="80" as="geometry" />
        </mxCell>
        <mxCell id="5e9uzvXsmu2g_bey__u_-15" value="End" style="ellipse;whiteSpace=wrap;html=1;fillColor=#f8cecc;strokeColor=#b85450;" vertex="1" parent="1">
          <mxGeometry x="90" y="1260" width="120" height="80" as="geometry" />
        </mxCell>
        <mxCell id="5e9uzvXsmu2g_bey__u_-39" value="" style="edgeStyle=orthogonalEdgeStyle;rounded=0;orthogonalLoop=1;jettySize=auto;html=1;" edge="1" parent="1" source="5e9uzvXsmu2g_bey__u_-17" target="5e9uzvXsmu2g_bey__u_-38">
          <mxGeometry relative="1" as="geometry" />
        </mxCell>
        <mxCell id="5e9uzvXsmu2g_bey__u_-17" value="Send InMail" style="rounded=1;whiteSpace=wrap;html=1;fillColor=#dae8fc;strokeColor=#6c8ebf;" vertex="1" parent="1">
          <mxGeometry x="90" y="1040" width="120" height="60" as="geometry" />
        </mxCell>
        <mxCell id="5e9uzvXsmu2g_bey__u_-23" value="" style="edgeStyle=orthogonalEdgeStyle;rounded=0;orthogonalLoop=1;jettySize=auto;html=1;" edge="1" parent="1" source="5e9uzvXsmu2g_bey__u_-20" target="5e9uzvXsmu2g_bey__u_-22">
          <mxGeometry relative="1" as="geometry" />
        </mxCell>
        <mxCell id="5e9uzvXsmu2g_bey__u_-20" value="Check connection" style="rounded=1;whiteSpace=wrap;html=1;fillColor=#dae8fc;strokeColor=#6c8ebf;" vertex="1" parent="1">
          <mxGeometry x="295" y="790" width="120" height="60" as="geometry" />
        </mxCell>
        <mxCell id="5e9uzvXsmu2g_bey__u_-25" value="" style="edgeStyle=orthogonalEdgeStyle;rounded=0;orthogonalLoop=1;jettySize=auto;html=1;" edge="1" parent="1" source="5e9uzvXsmu2g_bey__u_-22" target="5e9uzvXsmu2g_bey__u_-24">
          <mxGeometry relative="1" as="geometry" />
        </mxCell>
        <mxCell id="5e9uzvXsmu2g_bey__u_-28" value="" style="edgeStyle=orthogonalEdgeStyle;rounded=0;orthogonalLoop=1;jettySize=auto;html=1;" edge="1" parent="1" source="5e9uzvXsmu2g_bey__u_-22" target="5e9uzvXsmu2g_bey__u_-27">
          <mxGeometry relative="1" as="geometry" />
        </mxCell>
        <mxCell id="5e9uzvXsmu2g_bey__u_-22" value="Already connected?" style="rhombus;whiteSpace=wrap;html=1;fillColor=#fff2cc;strokeColor=#d6b656;" vertex="1" parent="1">
          <mxGeometry x="505" y="780" width="130" height="80" as="geometry" />
        </mxCell>
        <mxCell id="5e9uzvXsmu2g_bey__u_-41" style="edgeStyle=orthogonalEdgeStyle;rounded=0;orthogonalLoop=1;jettySize=auto;html=1;entryX=1;entryY=0.5;entryDx=0;entryDy=0;" edge="1" parent="1" source="5e9uzvXsmu2g_bey__u_-24" target="5e9uzvXsmu2g_bey__u_-38">
          <mxGeometry relative="1" as="geometry">
            <Array as="points">
              <mxPoint x="570" y="1180" />
            </Array>
          </mxGeometry>
        </mxCell>
        <mxCell id="5e9uzvXsmu2g_bey__u_-24" value="Send text message/attachment" style="rounded=1;whiteSpace=wrap;html=1;fillColor=#dae8fc;strokeColor=#6c8ebf;" vertex="1" parent="1">
          <mxGeometry x="510" y="920" width="120" height="60" as="geometry" />
        </mxCell>
        <mxCell id="5e9uzvXsmu2g_bey__u_-30" value="" style="edgeStyle=orthogonalEdgeStyle;rounded=0;orthogonalLoop=1;jettySize=auto;html=1;" edge="1" parent="1" source="5e9uzvXsmu2g_bey__u_-27" target="5e9uzvXsmu2g_bey__u_-29">
          <mxGeometry relative="1" as="geometry" />
        </mxCell>
        <mxCell id="5e9uzvXsmu2g_bey__u_-27" value="Send connection request" style="rounded=1;whiteSpace=wrap;html=1;fillColor=#dae8fc;strokeColor=#6c8ebf;" vertex="1" parent="1">
          <mxGeometry x="725" y="790" width="120" height="60" as="geometry" />
        </mxCell>
        <mxCell id="5e9uzvXsmu2g_bey__u_-32" style="edgeStyle=orthogonalEdgeStyle;rounded=0;orthogonalLoop=1;jettySize=auto;html=1;entryX=1;entryY=0.5;entryDx=0;entryDy=0;" edge="1" parent="1" source="5e9uzvXsmu2g_bey__u_-29" target="5e9uzvXsmu2g_bey__u_-24">
          <mxGeometry relative="1" as="geometry">
            <Array as="points">
              <mxPoint x="1000" y="950" />
            </Array>
          </mxGeometry>
        </mxCell>
        <mxCell id="5e9uzvXsmu2g_bey__u_-34" style="edgeStyle=orthogonalEdgeStyle;rounded=0;orthogonalLoop=1;jettySize=auto;html=1;entryX=0;entryY=0.5;entryDx=0;entryDy=0;" edge="1" parent="1" source="5e9uzvXsmu2g_bey__u_-29" target="5e9uzvXsmu2g_bey__u_-33">
          <mxGeometry relative="1" as="geometry" />
        </mxCell>
        <mxCell id="5e9uzvXsmu2g_bey__u_-29" value="Request accepted?" style="rhombus;whiteSpace=wrap;html=1;fillColor=#fff2cc;strokeColor=#d6b656;" vertex="1" parent="1">
          <mxGeometry x="935" y="780" width="130" height="80" as="geometry" />
        </mxCell>
        <mxCell id="5e9uzvXsmu2g_bey__u_-33" value="Wait" style="rounded=1;whiteSpace=wrap;html=1;fillColor=#dae8fc;strokeColor=#6c8ebf;" vertex="1" parent="1">
          <mxGeometry x="1155" y="790" width="120" height="60" as="geometry" />
        </mxCell>
        <mxCell id="5e9uzvXsmu2g_bey__u_-37" value="" style="edgeStyle=orthogonalEdgeStyle;rounded=0;orthogonalLoop=1;jettySize=auto;html=1;" edge="1" parent="1" source="5e9uzvXsmu2g_bey__u_-35" target="5e9uzvXsmu2g_bey__u_-17">
          <mxGeometry relative="1" as="geometry" />
        </mxCell>
        <mxCell id="5e9uzvXsmu2g_bey__u_-40" style="edgeStyle=orthogonalEdgeStyle;rounded=0;orthogonalLoop=1;jettySize=auto;html=1;entryX=0.5;entryY=1;entryDx=0;entryDy=0;" edge="1" parent="1" source="5e9uzvXsmu2g_bey__u_-35" target="5e9uzvXsmu2g_bey__u_-20">
          <mxGeometry relative="1" as="geometry" />
        </mxCell>
        <mxCell id="5e9uzvXsmu2g_bey__u_-35" value="Text message?" style="rhombus;whiteSpace=wrap;html=1;fillColor=#fff2cc;strokeColor=#d6b656;" vertex="1" parent="1">
          <mxGeometry x="85" y="910" width="130" height="80" as="geometry" />
        </mxCell>
        <mxCell id="5e9uzvXsmu2g_bey__u_-42" value="" style="edgeStyle=orthogonalEdgeStyle;rounded=0;orthogonalLoop=1;jettySize=auto;html=1;" edge="1" parent="1" source="5e9uzvXsmu2g_bey__u_-38" target="5e9uzvXsmu2g_bey__u_-15">
          <mxGeometry relative="1" as="geometry" />
        </mxCell>
        <mxCell id="5e9uzvXsmu2g_bey__u_-38" value="Wait for response" style="rounded=1;whiteSpace=wrap;html=1;fillColor=#dae8fc;strokeColor=#6c8ebf;" vertex="1" parent="1">
          <mxGeometry x="90" y="1150" width="120" height="60" as="geometry" />
        </mxCell>
        <mxCell id="5e9uzvXsmu2g_bey__u_-46" value="" style="edgeStyle=orthogonalEdgeStyle;rounded=0;orthogonalLoop=1;jettySize=auto;html=1;" edge="1" parent="1" source="5e9uzvXsmu2g_bey__u_-43" target="5e9uzvXsmu2g_bey__u_-45">
          <mxGeometry relative="1" as="geometry" />
        </mxCell>
        <mxCell id="5e9uzvXsmu2g_bey__u_-48" style="edgeStyle=orthogonalEdgeStyle;rounded=0;orthogonalLoop=1;jettySize=auto;html=1;entryX=0.5;entryY=0;entryDx=0;entryDy=0;" edge="1" parent="1" source="5e9uzvXsmu2g_bey__u_-43" target="5e9uzvXsmu2g_bey__u_-27">
          <mxGeometry relative="1" as="geometry" />
        </mxCell>
        <mxCell id="5e9uzvXsmu2g_bey__u_-43" value="Profile locked?" style="rhombus;whiteSpace=wrap;html=1;fillColor=#fff2cc;strokeColor=#d6b656;" vertex="1" parent="1">
          <mxGeometry x="85" y="560" width="130" height="80" as="geometry" />
        </mxCell>
        <mxCell id="5e9uzvXsmu2g_bey__u_-47" value="" style="edgeStyle=orthogonalEdgeStyle;rounded=0;orthogonalLoop=1;jettySize=auto;html=1;" edge="1" parent="1" source="5e9uzvXsmu2g_bey__u_-45" target="5e9uzvXsmu2g_bey__u_-11">
          <mxGeometry relative="1" as="geometry" />
        </mxCell>
        <mxCell id="5e9uzvXsmu2g_bey__u_-45" value="Premium account" style="rounded=1;whiteSpace=wrap;html=1;fillColor=#dae8fc;strokeColor=#6c8ebf;" vertex="1" parent="1">
          <mxGeometry x="90" y="680" width="120" height="60" as="geometry" />
        </mxCell>
        <mxCell id="5e9uzvXsmu2g_bey__u_-49" value="1" style="text;html=1;align=center;verticalAlign=middle;resizable=0;points=[];autosize=1;strokeColor=none;fillColor=none;" vertex="1" parent="1">
          <mxGeometry x="120" y="140" width="30" height="30" as="geometry" />
        </mxCell>
        <mxCell id="5e9uzvXsmu2g_bey__u_-50" value="2" style="text;html=1;align=center;verticalAlign=middle;resizable=0;points=[];autosize=1;strokeColor=none;fillColor=none;" vertex="1" parent="1">
          <mxGeometry x="120" y="270" width="30" height="30" as="geometry" />
        </mxCell>
        <mxCell id="5e9uzvXsmu2g_bey__u_-51" value="3" style="text;html=1;align=center;verticalAlign=middle;resizable=0;points=[];autosize=1;strokeColor=none;fillColor=none;" vertex="1" parent="1">
          <mxGeometry x="240" y="320" width="30" height="30" as="geometry" />
        </mxCell>
        <mxCell id="5e9uzvXsmu2g_bey__u_-52" value="4" style="text;html=1;align=center;verticalAlign=middle;resizable=0;points=[];autosize=1;strokeColor=none;fillColor=none;" vertex="1" parent="1">
          <mxGeometry x="330" y="220" width="30" height="30" as="geometry" />
        </mxCell>
        <mxCell id="5e9uzvXsmu2g_bey__u_-53" value="5" style="text;html=1;align=center;verticalAlign=middle;resizable=0;points=[];autosize=1;strokeColor=none;fillColor=none;" vertex="1" parent="1">
          <mxGeometry x="120" y="400" width="30" height="30" as="geometry" />
        </mxCell>
        <mxCell id="5e9uzvXsmu2g_bey__u_-54" value="6" style="text;html=1;align=center;verticalAlign=middle;resizable=0;points=[];autosize=1;strokeColor=none;fillColor=none;" vertex="1" parent="1">
          <mxGeometry x="120" y="520" width="30" height="30" as="geometry" />
        </mxCell>
        <mxCell id="5e9uzvXsmu2g_bey__u_-55" value="7" style="text;html=1;align=center;verticalAlign=middle;resizable=0;points=[];autosize=1;strokeColor=none;fillColor=none;" vertex="1" parent="1">
          <mxGeometry x="240" y="570" width="30" height="30" as="geometry" />
        </mxCell>
        <mxCell id="5e9uzvXsmu2g_bey__u_-56" value="8" style="text;html=1;align=center;verticalAlign=middle;resizable=0;points=[];autosize=1;strokeColor=none;fillColor=none;" vertex="1" parent="1">
          <mxGeometry x="120" y="640" width="30" height="30" as="geometry" />
        </mxCell>
        <mxCell id="5e9uzvXsmu2g_bey__u_-57" value="9" style="text;html=1;align=center;verticalAlign=middle;resizable=0;points=[];autosize=1;strokeColor=none;fillColor=none;" vertex="1" parent="1">
          <mxGeometry x="120" y="750" width="30" height="30" as="geometry" />
        </mxCell>
        <mxCell id="5e9uzvXsmu2g_bey__u_-58" value="10" style="text;html=1;align=center;verticalAlign=middle;resizable=0;points=[];autosize=1;strokeColor=none;fillColor=none;" vertex="1" parent="1">
          <mxGeometry x="225" y="790" width="40" height="30" as="geometry" />
        </mxCell>
        <mxCell id="5e9uzvXsmu2g_bey__u_-59" value="11" style="text;html=1;align=center;verticalAlign=middle;resizable=0;points=[];autosize=1;strokeColor=none;fillColor=none;" vertex="1" parent="1">
          <mxGeometry x="440" y="790" width="40" height="30" as="geometry" />
        </mxCell>
        <mxCell id="5e9uzvXsmu2g_bey__u_-60" value="12" style="text;html=1;align=center;verticalAlign=middle;resizable=0;points=[];autosize=1;strokeColor=none;fillColor=none;" vertex="1" parent="1">
          <mxGeometry x="650" y="790" width="40" height="30" as="geometry" />
        </mxCell>
        <mxCell id="5e9uzvXsmu2g_bey__u_-61" value="13" style="text;html=1;align=center;verticalAlign=middle;resizable=0;points=[];autosize=1;strokeColor=none;fillColor=none;" vertex="1" parent="1">
          <mxGeometry x="870" y="790" width="40" height="30" as="geometry" />
        </mxCell>
        <mxCell id="5e9uzvXsmu2g_bey__u_-62" value="14" style="text;html=1;align=center;verticalAlign=middle;resizable=0;points=[];autosize=1;strokeColor=none;fillColor=none;" vertex="1" parent="1">
          <mxGeometry x="1090" y="790" width="40" height="30" as="geometry" />
        </mxCell>
        <mxCell id="5e9uzvXsmu2g_bey__u_-63" value="15" style="text;html=1;align=center;verticalAlign=middle;resizable=0;points=[];autosize=1;strokeColor=none;fillColor=none;" vertex="1" parent="1">
          <mxGeometry x="530" y="870" width="40" height="30" as="geometry" />
        </mxCell>
        <mxCell id="5e9uzvXsmu2g_bey__u_-64" value="16" style="text;html=1;align=center;verticalAlign=middle;resizable=0;points=[];autosize=1;strokeColor=none;fillColor=none;" vertex="1" parent="1">
          <mxGeometry x="960" y="870" width="40" height="30" as="geometry" />
        </mxCell>
        <mxCell id="5e9uzvXsmu2g_bey__u_-65" value="17" style="text;html=1;align=center;verticalAlign=middle;resizable=0;points=[];autosize=1;strokeColor=none;fillColor=none;" vertex="1" parent="1">
          <mxGeometry x="530" y="1030" width="40" height="30" as="geometry" />
        </mxCell>
        <mxCell id="5e9uzvXsmu2g_bey__u_-66" value="18" style="text;html=1;align=center;verticalAlign=middle;resizable=0;points=[];autosize=1;strokeColor=none;fillColor=none;" vertex="1" parent="1">
          <mxGeometry x="110" y="870" width="40" height="30" as="geometry" />
        </mxCell>
        <mxCell id="5e9uzvXsmu2g_bey__u_-67" value="19" style="text;html=1;align=center;verticalAlign=middle;resizable=0;points=[];autosize=1;strokeColor=none;fillColor=none;" vertex="1" parent="1">
          <mxGeometry x="225" y="920" width="40" height="30" as="geometry" />
        </mxCell>
        <mxCell id="5e9uzvXsmu2g_bey__u_-68" value="20" style="text;html=1;align=center;verticalAlign=middle;resizable=0;points=[];autosize=1;strokeColor=none;fillColor=none;" vertex="1" parent="1">
          <mxGeometry x="110" y="1000" width="40" height="30" as="geometry" />
        </mxCell>
        <mxCell id="5e9uzvXsmu2g_bey__u_-69" value="21" style="text;html=1;align=center;verticalAlign=middle;resizable=0;points=[];autosize=1;strokeColor=none;fillColor=none;" vertex="1" parent="1">
          <mxGeometry x="110" y="1110" width="40" height="30" as="geometry" />
        </mxCell>
        <mxCell id="5e9uzvXsmu2g_bey__u_-70" value="22" style="text;html=1;align=center;verticalAlign=middle;resizable=0;points=[];autosize=1;strokeColor=none;fillColor=none;" vertex="1" parent="1">
          <mxGeometry x="110" y="1220" width="40" height="30" as="geometry" />
        </mxCell>
        <mxCell id="5e9uzvXsmu2g_bey__u_-71" value="Yes" style="text;html=1;align=center;verticalAlign=middle;resizable=0;points=[];autosize=1;strokeColor=none;fillColor=none;" vertex="1" parent="1">
          <mxGeometry x="150" y="270" width="40" height="30" as="geometry" />
        </mxCell>
        <mxCell id="5e9uzvXsmu2g_bey__u_-72" value="No" style="text;html=1;align=center;verticalAlign=middle;resizable=0;points=[];autosize=1;strokeColor=none;fillColor=none;" vertex="1" parent="1">
          <mxGeometry x="220" y="360" width="40" height="30" as="geometry" />
        </mxCell>
        <mxCell id="5e9uzvXsmu2g_bey__u_-73" value="Yes" style="text;html=1;align=center;verticalAlign=middle;resizable=0;points=[];autosize=1;strokeColor=none;fillColor=none;" vertex="1" parent="1">
          <mxGeometry x="210" y="600" width="40" height="30" as="geometry" />
        </mxCell>
        <mxCell id="5e9uzvXsmu2g_bey__u_-74" value="No" style="text;html=1;align=center;verticalAlign=middle;resizable=0;points=[];autosize=1;strokeColor=none;fillColor=none;" vertex="1" parent="1">
          <mxGeometry x="150" y="640" width="40" height="30" as="geometry" />
        </mxCell>
        <mxCell id="5e9uzvXsmu2g_bey__u_-75" value="Yes" style="text;html=1;align=center;verticalAlign=middle;resizable=0;points=[];autosize=1;strokeColor=none;fillColor=none;" vertex="1" parent="1">
          <mxGeometry x="150" y="870" width="40" height="30" as="geometry" />
        </mxCell>
        <mxCell id="5e9uzvXsmu2g_bey__u_-76" value="No" style="text;html=1;align=center;verticalAlign=middle;resizable=0;points=[];autosize=1;strokeColor=none;fillColor=none;" vertex="1" parent="1">
          <mxGeometry x="225" y="820" width="40" height="30" as="geometry" />
        </mxCell>
        <mxCell id="5e9uzvXsmu2g_bey__u_-77" value="Yes" style="text;html=1;align=center;verticalAlign=middle;resizable=0;points=[];autosize=1;strokeColor=none;fillColor=none;" vertex="1" parent="1">
          <mxGeometry x="150" y="990" width="40" height="30" as="geometry" />
        </mxCell>
        <mxCell id="5e9uzvXsmu2g_bey__u_-78" value="No" style="text;html=1;align=center;verticalAlign=middle;resizable=0;points=[];autosize=1;strokeColor=none;fillColor=none;" vertex="1" parent="1">
          <mxGeometry x="225" y="950" width="40" height="30" as="geometry" />
        </mxCell>
        <mxCell id="5e9uzvXsmu2g_bey__u_-79" value="Yes" style="text;html=1;align=center;verticalAlign=middle;resizable=0;points=[];autosize=1;strokeColor=none;fillColor=none;" vertex="1" parent="1">
          <mxGeometry x="570" y="870" width="40" height="30" as="geometry" />
        </mxCell>
        <mxCell id="5e9uzvXsmu2g_bey__u_-80" value="No" style="text;html=1;align=center;verticalAlign=middle;resizable=0;points=[];autosize=1;strokeColor=none;fillColor=none;" vertex="1" parent="1">
          <mxGeometry x="650" y="820" width="40" height="30" as="geometry" />
        </mxCell>
        <mxCell id="5e9uzvXsmu2g_bey__u_-81" value="Yes" style="text;html=1;align=center;verticalAlign=middle;resizable=0;points=[];autosize=1;strokeColor=none;fillColor=none;" vertex="1" parent="1">
          <mxGeometry x="1000" y="870" width="40" height="30" as="geometry" />
        </mxCell>
        <mxCell id="5e9uzvXsmu2g_bey__u_-82" value="No" style="text;html=1;align=center;verticalAlign=middle;resizable=0;points=[];autosize=1;strokeColor=none;fillColor=none;" vertex="1" parent="1">
          <mxGeometry x="1090" y="830" width="40" height="30" as="geometry" />
        </mxCell>
      </root>
    </mxGraphModel>
  </diagram>
</mxfile>
